<svg width="72" height="69" viewBox="0 0 72 69" fill="none" xmlns="http://www.w3.org/2000/svg">
<path d="M9 50V0L0 16.5V50H9Z" transform="translate(63 19)" fill="black"/>
<path d="M63.648 13.728L71.568 0H64.704C63.872 0 63.216 0.0799999 62.736 0.24C62.288 0.4 61.872 0.848 61.488 1.584L38.16 43.872C37.744 44.64 37.36 45.456 37.008 46.32C36.656 47.152 36.32 48 36 48.864C35.68 48 35.328 47.152 34.944 46.32C34.592 45.488 34.224 44.688 33.84 43.92L10.08 1.584C9.664 0.848 9.232 0.4 8.784 0.24C8.336 0.0799999 7.696 0 6.864 0H0V68.784H8.16V18.24C8.16 16.8 8.064 15.232 7.872 13.536L31.968 56.736C32.704 58.176 33.824 58.896 35.328 58.896H36.672C38.176 58.896 39.296 58.176 40.032 56.736L63.648 13.728Z" fill="black"/>
</svg>
